<?xml version="1.0" standalone="no"?>
<!DOCTYPE svg PUBLIC "-//W3C//DTD SVG 20010904//EN"
 "http://www.w3.org/TR/2001/REC-SVG-20010904/DTD/svg10.dtd">
<svg version="1.0" xmlns="http://www.w3.org/2000/svg"
 width="512.000000pt" height="512.000000pt" viewBox="0 0 512.000000 512.000000"
 preserveAspectRatio="xMidYMid meet">
<metadata>
Created by potrace 1.11, written by Peter Selinger 2001-2013
</metadata>
<g transform="translate(0.000000,512.000000) scale(0.100000,-0.100000)"
fill="#000000" stroke="none">
<path d="M1135 4819 c-234 -33 -484 -177 -630 -362 -400 -505 -242 -1232 330
-1519 382 -192 847 -117 1150 187 389 389 389 1021 0 1410 -221 222 -540 328
-850 284z"/>
<path d="M3695 4819 c-201 -29 -413 -136 -560 -284 -482 -481 -350 -1291 260
-1597 491 -247 1089 -47 1337 447 144 285 141 616 -8 905 -192 373 -611 589
-1029 529z"/>
<path d="M3695 2279 c-201 -29 -413 -136 -560 -284 -482 -481 -350 -1291 260
-1597 549 -276 1214 10 1400 602 108 345 10 736 -250 995 -221 222 -540 328
-850 284z"/>
</g>
</svg>
